# xmcd
#
# Track frame offsets: 
#        150
#        13387
#        27051
#        39598
#        52755
#        65724
#        79042
#        92765
#        106486
#        120796
#        136427
#        150397
#        165046
#        180100
#        193852
#        207115
#        221033
#        233592
#        248827
#        262595
#
# Disc length: 3680 seconds
#
# Revision: 0
# Processed by: cddbd v1.5.2PL0 Copyright (c) Steve Scherf et al.
# Submitted via: ExactAudioCopy v0.95b4
#
DISCID=f20e5e14
DTITLE=Charlie Poole and The North Carolina Ramblers - The Essential Cha
DTITLE=rlie Poole CD4 - If The River Was Wiskey
DYEAR=2009
DGENRE=Country
TTITLE0=Roy Harvey and Leonard Copeland/ Just Pickin'
TTITLE1=Roy Harvey and Leonard Copeland/ Beckley Rag
TTITLE2=Roy Harvey and Leonard Copeland/ Underneath The Sugar Moon
TTITLE3=Roy Harvey and Leonard Copeland/ Lonesome Weary Blues
TTITLE4=Charlie Poole and The North Carolina Ramblers - Sweet Sixteen
TTITLE5=Charlie Poole and The North Carolina Ramblers - My Gypsy Girl
TTITLE6=Charlie Poole and The North Carolina Ramblers - The Only Girl I 
TTITLE6=Ever Loved
TTITLE7=Charlie Poole and The North Carolina Ramblers - Write A Letter T
TTITLE7=o My Mother
TTITLE8=Charlie Poole and The North Carolina Ramblers - If The River Was
TTITLE8=Whiskey
TTITLE9=Charlie Poole and The North Carolina Ramblers - It's Moving Day
TTITLE10=Charlie Poole and Roy Harvey - Southern Medley
TTITLE11=Charlie Poole and Roy Harvey - Honeysuckle
TTITLE12=Roy Harvey and Leonard Copeland/ Greasy Wagon
TTITLE13=Roy Harvey and Leonard Copeland/ Mother's Waltz
TTITLE14=Roy Harvey and Leonard Copeland/ Back To The Blue Ridge
TTITLE15=Charlie Poole and The North Carolina Ramblers - Goodbye Sweet L
TTITLE15=iza Jane
TTITLE16=Charlie Poole and The North Carolina Ramblers - Look Before You
TTITLE16=Leap
TTITLE17=Charlie Poole and The North Carolina Ramblers - Just Keep Waiti
TTITLE17=ng Till The Good Times Come
TTITLE18=Charlie Poole and The North Carolina Ramblers - Mother's Last F
TTITLE18=arewell Kiss
TTITLE19=Charlie Poole and The North Carolina Ramblers - Where The Whipp
TTITLE19=oorwill Is Whispering Good-Night
EXTD=
EXTT0=
EXTT1=
EXTT2=
EXTT3=
EXTT4=
EXTT5=
EXTT6=
EXTT7=
EXTT8=
EXTT9=
EXTT10=
EXTT11=
EXTT12=
EXTT13=
EXTT14=
EXTT15=
EXTT16=
EXTT17=
EXTT18=
EXTT19=
PLAYORDER=
